{"title":"Ouija 2014 CAM READNFO XVID AC3 ACAB","uid":11372471,"size":1190920454,"categoryP":"video","categoryS":"movies","magnet":"?xt=urn:btih:a09f4ba4f90b7585103265db1ed91c812bb14787&amp;dn=Ouija+2014+CAM+READNFO+XVID+AC3+ACAB&amp;tr=udp%3A%2F%2Ftracker.openbittorrent.com%3A80&amp;tr=udp%3A%2F%2Fopen.demonii.com%3A1337&amp;tr=udp%3A%2F%2Ftracker.coppersurfer.tk%3A6969&amp;tr=udp%3A%2F%2Fexodus.desync.com%3A6969","seeders":13,"leechers":3,"uploader":"xxxlavalxxx","files":-1,"time":1415060714,"description":"[IMG]http://i.imgur.com/i7ctCy6.jpg[/IMG]\n &lt;a href=&quot;\nhttp://www.imdb.com/title/tt1204977/&quot; rel=&quot;nofollow&quot; target=&quot;_NEW&quot;&gt;\nhttp://www.imdb.com/title/tt1204977/&lt;/a&gt;\n\n\nA group of friends must confront their most terrifying fears when they awaken the dark powers of an ancient spirit board.\n\nDirector: Stiles White\nWriters: Juliet Snowden (screenplay), Stiles White (screenplay)\nStars: Olivia Cooke, Ana Coto, Daren Kagasoff\nGenres: Horror\nCountry: USA\nLanguage: English\n\n\nFormat: AVI\nFormat/Info: Audio Video Interleave\nFile size: 1.09 GiB\nDuration: 1h 23mn\nOverall bit rate: 1 874 Kbps\nWriting library: VirtualDub build 30091/release\n\nVideo\nID: 0\nFormat: MPEG-4 Visual\nFormat profile: Advanced Simple@L5\nFormat settings, BVOP: 2\nFormat settings, QPel: No\nFormat settings, GMC: No warppoints\nFormat settings, Matrix: Default (H.263)\nMuxing mode: Packed bitstream\nCodec ID: XVID\nCodec ID/Hint: XviD\nDuration: 1h 23mn\nBit rate: 1 600 Kbps\nWidth: 720 pixels\nHeight: 304 pixels\nDisplay aspect ratio: 2.35:1\nFrame rate: 59.940 fps\nColor space: YUV\nChroma subsampling: 4:2:0\nBit depth: 8 bits\nScan type: Progressive\nCompression mode: Lossy\nBits/(Pixel*Frame): 0.122\nStream size: 953 MiB (85%)\nWriting library: XviD 73\n\nAudio\nID: 1\nFormat: AC-3\nFormat/Info: Audio Coding 3\nMode extension: CM (complete main)\nFormat settings, Endianness: Big\nCodec ID: 2000\nDuration: 1h 23mn\nBit rate mode: Constant\nBit rate: 256 Kbps\nChannel(s): 2 channels\nChannel positions: Front: L R\nSampling rate: 48.0 KHz\nBit depth: 16 bits\nCompression mode: Lossy\nStream size: 153 MiB (14%)\nAlignment: Aligned on interleaves\nInterleave, duration: 32 ms (1.92 video frames)\nInterleave, preload duration: 512 ms\n\nTook The 720p CAM [Thanks] Did What I Could Brigtened Up Resized etc etc Will Warn You Some Bits May Still Be Dark But Overall A Very Nice Cam Enjoy...\n\n\nscreens\n &lt;a href=&quot;\nhttp://i.imgur.com/6vDwifQ.png&quot; rel=&quot;nofollow&quot; target=&quot;_NEW&quot;&gt;\nhttp://i.imgur.com/6vDwifQ.png&lt;/a&gt; &lt;a href=&quot;\nhttp://i.imgur.com/puwG0FT.png&quot; rel=&quot;nofollow&quot; target=&quot;_NEW&quot;&gt;\nhttp://i.imgur.com/puwG0FT.png&lt;/a&gt; &lt;a href=&quot;\nhttp://i.imgur.com/UtRMlY6.png&quot; rel=&quot;nofollow&quot; target=&quot;_NEW&quot;&gt;\nhttp://i.imgur.com/UtRMlY6.png&lt;/a&gt;","torrent":{"xt":"urn:btih:a09f4ba4f90b7585103265db1ed91c812bb14787","amp;dn":"Ouija+2014+CAM+READNFO+XVID+AC3+ACAB","amp;tr":["udp%3A%2F%2Ftracker.openbittorrent.com%3A80","udp%3A%2F%2Fopen.demonii.com%3A1337","udp%3A%2F%2Ftracker.coppersurfer.tk%3A6969","udp%3A%2F%2Fexodus.desync.com%3A6969"],"infoHash":"a09f4ba4f90b7585103265db1ed91c812bb14787","infoHashBuffer":{"type":"Buffer","data":[160,159,75,164,249,11,117,133,16,50,101,219,30,217,28,129,43,177,71,135]},"announce":[],"urlList":[]}}